<svg width="230" height="64" viewBox="0 0 230 64" fill="none" xmlns="http://www.w3.org/2000/svg">
<path d="M3.696 19.776C3.696 17.28 4.368 15.472 5.712 14.352C7.056 13.232 8.704 12.672 10.656 12.672L13.344 12.72C14.112 12.752 15.776 12.8 18.336 12.864C20.928 12.896 23.296 12.992 25.44 13.152V16.176H11.568C10.288 16.176 9.296 16.544 8.592 17.28C7.888 17.984 7.536 19.008 7.536 20.352V29.52L23.328 29.76V32.688L7.536 32.928V48H3.696V19.776ZM38.0456 48.288C32.9256 48.288 30.3656 45.664 30.3656 40.416V22.368H34.1576V39.456C34.1576 41.504 34.6056 42.928 35.5016 43.728C36.4296 44.528 37.8376 44.928 39.7256 44.928C41.1656 44.928 42.5096 44.736 43.7576 44.352C45.0056 43.936 46.3176 43.312 47.6936 42.48V22.368H51.4856V48H48.5096L47.6936 45.168C44.4296 47.248 41.2136 48.288 38.0456 48.288ZM58.6324 22.368H61.5124L62.4244 26.832C63.6724 25.328 65.0164 24.16 66.4564 23.328C67.8964 22.496 69.4804 22.08 71.2084 22.08C72.0724 22.08 72.8724 22.16 73.6084 22.32V26.208C72.1684 26.048 71.2404 25.968 70.8244 25.968C69.1284 25.968 67.6564 26.272 66.4084 26.88C65.1924 27.488 63.8644 28.464 62.4244 29.808V48H58.6324V22.368ZM88.4936 48.288C86.9896 48.288 85.1176 48.192 82.8776 48C80.6696 47.84 78.9736 47.648 77.7896 47.424V44.496C80.2856 44.752 83.8056 44.88 88.3496 44.88C90.7816 44.88 92.6696 44.496 94.0136 43.728C95.3576 42.96 96.0296 41.568 96.0296 39.552V37.152C96.0296 33.824 94.2696 32.16 90.7496 32.16H86.9576C83.9176 32.16 81.5976 31.504 79.9976 30.192C78.4296 28.848 77.6456 26.656 77.6456 23.616V21.6C77.6456 18.368 78.5096 16.032 80.2376 14.592C81.9656 13.12 84.5256 12.384 87.9176 12.384C89.3576 12.384 91.0856 12.496 93.1016 12.72C95.1496 12.912 96.8136 13.136 98.0936 13.392V16.272C93.7736 15.984 90.5096 15.84 88.3016 15.84C85.9336 15.84 84.1736 16.272 83.0216 17.136C81.8696 17.968 81.2936 19.504 81.2936 21.744V23.376C81.2936 25.232 81.7736 26.56 82.7336 27.36C83.7256 28.128 85.1816 28.512 87.1016 28.512H91.1816C93.9656 28.512 96.0776 29.264 97.5176 30.768C98.9576 32.24 99.6776 34.224 99.6776 36.72V39.456C99.6776 42.752 98.6696 45.056 96.6536 46.368C94.6696 47.648 91.9496 48.288 88.4936 48.288ZM102.959 22.368H106.847L113.135 44.448L119.615 22.368H122.927L129.407 44.448L135.503 22.368H139.391L131.663 48H127.487L121.199 27.456L114.863 48H110.735L102.959 22.368ZM152.799 48.288C150.047 48.288 147.903 47.888 146.367 47.088C144.863 46.288 143.775 44.944 143.103 43.056C142.431 41.168 142.095 38.528 142.095 35.136C142.095 31.712 142.431 29.056 143.103 27.168C143.807 25.28 144.927 23.952 146.463 23.184C147.999 22.416 150.127 22.032 152.847 22.032C155.183 22.032 157.055 22.288 158.463 22.8C159.871 23.312 160.911 24.192 161.583 25.44C162.255 26.656 162.591 28.352 162.591 30.528C162.591 32.704 161.951 34.288 160.671 35.28C159.423 36.24 157.631 36.72 155.295 36.72H145.887C145.919 38.928 146.143 40.64 146.559 41.856C146.975 43.04 147.743 43.92 148.863 44.496C149.983 45.04 151.599 45.312 153.711 45.312H161.967V47.616C160.239 47.84 158.703 48 157.359 48.096C156.015 48.224 154.495 48.288 152.799 48.288ZM154.959 34.224C156.431 34.224 157.503 33.952 158.175 33.408C158.847 32.864 159.183 31.92 159.183 30.576C159.183 28.432 158.703 26.96 157.743 26.16C156.815 25.328 155.183 24.912 152.847 24.912C150.991 24.912 149.567 25.184 148.575 25.728C147.583 26.272 146.879 27.2 146.463 28.512C146.047 29.824 145.839 31.728 145.839 34.224H154.959ZM178.768 48.288C176.016 48.288 173.872 47.888 172.336 47.088C170.832 46.288 169.744 44.944 169.072 43.056C168.4 41.168 168.064 38.528 168.064 35.136C168.064 31.712 168.4 29.056 169.072 27.168C169.776 25.28 170.896 23.952 172.432 23.184C173.968 22.416 176.096 22.032 178.816 22.032C181.152 22.032 183.024 22.288 184.432 22.8C185.84 23.312 186.88 24.192 187.552 25.44C188.224 26.656 188.56 28.352 188.56 30.528C188.56 32.704 187.92 34.288 186.64 35.28C185.392 36.24 183.6 36.72 181.264 36.72H171.856C171.888 38.928 172.112 40.64 172.528 41.856C172.944 43.04 173.712 43.92 174.832 44.496C175.952 45.04 177.568 45.312 179.68 45.312H187.936V47.616C186.208 47.84 184.672 48 183.328 48.096C181.984 48.224 180.464 48.288 178.768 48.288ZM180.928 34.224C182.4 34.224 183.472 33.952 184.144 33.408C184.816 32.864 185.152 31.92 185.152 30.576C185.152 28.432 184.672 26.96 183.712 26.16C182.784 25.328 181.152 24.912 178.816 24.912C176.96 24.912 175.536 25.184 174.544 25.728C173.552 26.272 172.848 27.2 172.432 28.512C172.016 29.824 171.808 31.728 171.808 34.224H180.928ZM203.441 48C200.913 48 199.057 47.36 197.873 46.08C196.689 44.768 196.129 42.64 196.193 39.696L196.337 25.488H192.257V23.04L196.385 22.368L197.009 15.216H199.937V22.368H207.329V25.488H199.937V39.696C199.937 41.648 200.305 42.992 201.041 43.728C201.777 44.432 202.705 44.832 203.825 44.928L206.945 45.216V48H203.441Z" fill="white"/>
<ellipse cx="223" cy="23" rx="7" ry="6" fill="#F6973F"/>
</svg>
