<svg width="205" height="116" viewBox="0 0 205 116" fill="none" xmlns="http://www.w3.org/2000/svg">
<g filter="url(#filter0_b_4_36)">
<mask id="path-1-inside-1_4_36" fill="white">
<path fill-rule="evenodd" clip-rule="evenodd" d="M24 0C10.7452 0 0 10.7452 0 24V79C0 92.2548 10.7452 103 24 103H89.712C89.7326 103.037 89.7539 103.073 89.7758 103.109L96.2461 113.813C97.839 116.448 101.687 116.371 103.173 113.674L109.053 103H181C194.255 103 205 92.2548 205 79V24C205 10.7452 194.255 0 181 0H24Z"/>
</mask>
<path fill-rule="evenodd" clip-rule="evenodd" d="M24 0C10.7452 0 0 10.7452 0 24V79C0 92.2548 10.7452 103 24 103H89.712C89.7326 103.037 89.7539 103.073 89.7758 103.109L96.2461 113.813C97.839 116.448 101.687 116.371 103.173 113.674L109.053 103H181C194.255 103 205 92.2548 205 79V24C205 10.7452 194.255 0 181 0H24Z" fill="#FFFDFD" fill-opacity="0.2"/>
<path d="M89.712 103L90.5829 102.508L90.2959 102H89.712V103ZM89.7758 103.109L90.6316 102.592L90.6316 102.592L89.7758 103.109ZM96.2461 113.813L97.1019 113.296L96.2461 113.813ZM103.173 113.674L102.297 113.191L103.173 113.674ZM109.053 103V102H108.462L108.177 102.518L109.053 103ZM1 24C1 11.2975 11.2975 1 24 1V-1C10.1929 -1 -1 10.1929 -1 24H1ZM1 79V24H-1V79H1ZM24 102C11.2975 102 1 91.7026 1 79H-1C-1 92.8071 10.1929 104 24 104V102ZM89.712 102H24V104H89.712V102ZM90.6316 102.592C90.6149 102.564 90.5986 102.536 90.5829 102.508L88.8411 103.492C88.8667 103.537 88.893 103.582 88.9201 103.627L90.6316 102.592ZM97.1019 113.296L90.6316 102.592L88.92 103.627L95.3903 114.331L97.1019 113.296ZM102.297 113.191C101.183 115.214 98.2966 115.272 97.1019 113.296L95.3903 114.331C97.3815 117.625 102.192 117.528 104.049 114.156L102.297 113.191ZM108.177 102.518L102.297 113.191L104.049 114.156L109.929 103.482L108.177 102.518ZM181 102H109.053V104H181V102ZM204 79C204 91.7026 193.703 102 181 102V104C194.807 104 206 92.8071 206 79H204ZM204 24V79H206V24H204ZM181 1C193.703 1 204 11.2975 204 24H206C206 10.1929 194.807 -1 181 -1V1ZM24 1H181V-1H24V1Z" fill="white" mask="url(#path-1-inside-1_4_36)"/>
</g>
<defs>
<filter id="filter0_b_4_36" x="-4" y="-4" width="213" height="123.744" filterUnits="userSpaceOnUse" color-interpolation-filters="sRGB">
<feFlood flood-opacity="0" result="BackgroundImageFix"/>
<feGaussianBlur in="BackgroundImage" stdDeviation="2"/>
<feComposite in2="SourceAlpha" operator="in" result="effect1_backgroundBlur_4_36"/>
<feBlend mode="normal" in="SourceGraphic" in2="effect1_backgroundBlur_4_36" result="shape"/>
</filter>
</defs>
</svg>
