<svg width="21" height="21" viewBox="0 0 21 21" fill="none" xmlns="http://www.w3.org/2000/svg">
<path d="M6.25 16.2C5.10417 16.2 4.17708 17.1113 4.17708 18.225C4.17708 19.3388 5.10417 20.25 6.25 20.25C7.39583 20.25 8.33333 19.3388 8.33333 18.225C8.33333 17.1113 7.39583 16.2 6.25 16.2ZM0 0V2.025H2.08333L5.83333 9.70988L4.42708 12.1905C4.26042 12.474 4.16667 12.8081 4.16667 13.1625C4.16667 14.2763 5.10417 15.1875 6.25 15.1875H18.75V13.1625H6.6875C6.54167 13.1625 6.42708 13.0511 6.42708 12.9094L6.45833 12.7879L7.39583 11.1375H15.1562C15.9375 11.1375 16.625 10.7224 16.9792 10.0946L20.7083 3.5235C20.7917 3.38175 20.8333 3.20963 20.8333 3.0375C20.8333 2.48063 20.3646 2.025 19.7917 2.025H4.38542L3.40625 0H0ZM16.6667 16.2C15.5208 16.2 14.5937 17.1113 14.5937 18.225C14.5937 19.3388 15.5208 20.25 16.6667 20.25C17.8125 20.25 18.75 19.3388 18.75 18.225C18.75 17.1113 17.8125 16.2 16.6667 16.2Z" fill="white"/>
</svg>
