<svg width="21" height="21" viewBox="0 0 21 21" fill="none" xmlns="http://www.w3.org/2000/svg">
<path d="M6.25 16.45C5.10417 16.45 4.17708 17.3613 4.17708 18.475C4.17708 19.5888 5.10417 20.5 6.25 20.5C7.39583 20.5 8.33333 19.5888 8.33333 18.475C8.33333 17.3613 7.39583 16.45 6.25 16.45ZM0 0.25V2.275H2.08333L5.83333 9.95988L4.42708 12.4405C4.26042 12.724 4.16667 13.0581 4.16667 13.4125C4.16667 14.5263 5.10417 15.4375 6.25 15.4375H18.75V13.4125H6.6875C6.54167 13.4125 6.42708 13.3011 6.42708 13.1594L6.45833 13.0379L7.39583 11.3875H15.1562C15.9375 11.3875 16.625 10.9724 16.9792 10.3446L20.7083 3.7735C20.7917 3.63175 20.8333 3.45963 20.8333 3.2875C20.8333 2.73063 20.3646 2.275 19.7917 2.275H4.38542L3.40625 0.25H0ZM16.6667 16.45C15.5208 16.45 14.5937 17.3613 14.5937 18.475C14.5937 19.5888 15.5208 20.5 16.6667 20.5C17.8125 20.5 18.75 19.5888 18.75 18.475C18.75 17.3613 17.8125 16.45 16.6667 16.45Z" fill="#423144"/>
</svg>
