<svg width="68" height="68" viewBox="0 0 68 68" fill="none" xmlns="http://www.w3.org/2000/svg">
<path d="M34 4.25V8.7125" stroke="url(#paint0_linear_23_102)" stroke-width="4" stroke-linecap="round" stroke-linejoin="round"/>
<path fill-rule="evenodd" clip-rule="evenodd" d="M55.0375 12.9625L51.8812 16.1189L55.0361 12.9639L55.0375 12.9625Z" fill="url(#paint1_linear_23_102)"/>
<path d="M55.0375 12.9625L51.8812 16.1189" stroke="url(#paint2_linear_23_102)" stroke-width="4" stroke-linecap="round" stroke-linejoin="round"/>
<path d="M63.75 34H59.2875" stroke="url(#paint3_linear_23_102)" stroke-width="4" stroke-linecap="round" stroke-linejoin="round"/>
<path fill-rule="evenodd" clip-rule="evenodd" d="M55.0375 55.0376L51.8812 51.8812L55.0361 55.0361L55.0375 55.0376Z" fill="url(#paint4_linear_23_102)"/>
<path d="M55.0375 55.0376L51.8812 51.8812" stroke="url(#paint5_linear_23_102)" stroke-width="4" stroke-linecap="round" stroke-linejoin="round"/>
<path d="M34 63.75V59.2875" stroke="url(#paint6_linear_23_102)" stroke-width="4" stroke-linecap="round" stroke-linejoin="round"/>
<path fill-rule="evenodd" clip-rule="evenodd" d="M12.9625 55.0376L16.1189 51.8812L12.9639 55.0361L12.9625 55.0376Z" fill="url(#paint7_linear_23_102)"/>
<path d="M12.9625 55.0376L16.1189 51.8812" stroke="url(#paint8_linear_23_102)" stroke-width="4" stroke-linecap="round" stroke-linejoin="round"/>
<path d="M4.25 34H8.7125" stroke="url(#paint9_linear_23_102)" stroke-width="4" stroke-linecap="round" stroke-linejoin="round"/>
<path fill-rule="evenodd" clip-rule="evenodd" d="M12.9625 12.9625L16.1189 16.1189L12.9639 12.9639L12.9625 12.9625Z" fill="url(#paint10_linear_23_102)"/>
<path d="M12.9625 12.9625L16.1189 16.1189" stroke="url(#paint11_linear_23_102)" stroke-width="4" stroke-linecap="round" stroke-linejoin="round"/>
<path d="M34 51C43.3882 51 51 43.3882 51 34C51 24.6117 43.3882 17 34 17C24.6117 17 17 24.6117 17 34C17 43.3882 24.6117 51 34 51Z" stroke="url(#paint12_linear_23_102)" stroke-width="4" stroke-linejoin="round"/>
<defs>
<linearGradient id="paint0_linear_23_102" x1="34" y1="6.48125" x2="35" y2="6.48125" gradientUnits="userSpaceOnUse">
<stop stop-color="#2AF598"/>
<stop offset="1" stop-color="#009EFD"/>
</linearGradient>
<linearGradient id="paint1_linear_23_102" x1="51.8812" y1="14.5407" x2="55.0375" y2="14.5407" gradientUnits="userSpaceOnUse">
<stop stop-color="#2AF598"/>
<stop offset="1" stop-color="#009EFD"/>
</linearGradient>
<linearGradient id="paint2_linear_23_102" x1="51.8812" y1="14.5407" x2="55.0375" y2="14.5407" gradientUnits="userSpaceOnUse">
<stop stop-color="#2AF598"/>
<stop offset="1" stop-color="#009EFD"/>
</linearGradient>
<linearGradient id="paint3_linear_23_102" x1="59.2875" y1="34.5" x2="63.75" y2="34.5" gradientUnits="userSpaceOnUse">
<stop stop-color="#2AF598"/>
<stop offset="1" stop-color="#009EFD"/>
</linearGradient>
<linearGradient id="paint4_linear_23_102" x1="51.8812" y1="53.4594" x2="55.0375" y2="53.4594" gradientUnits="userSpaceOnUse">
<stop stop-color="#2AF598"/>
<stop offset="1" stop-color="#009EFD"/>
</linearGradient>
<linearGradient id="paint5_linear_23_102" x1="51.8812" y1="53.4594" x2="55.0375" y2="53.4594" gradientUnits="userSpaceOnUse">
<stop stop-color="#2AF598"/>
<stop offset="1" stop-color="#009EFD"/>
</linearGradient>
<linearGradient id="paint6_linear_23_102" x1="34" y1="61.5187" x2="35" y2="61.5187" gradientUnits="userSpaceOnUse">
<stop stop-color="#2AF598"/>
<stop offset="1" stop-color="#009EFD"/>
</linearGradient>
<linearGradient id="paint7_linear_23_102" x1="12.9625" y1="53.4594" x2="16.1189" y2="53.4594" gradientUnits="userSpaceOnUse">
<stop stop-color="#2AF598"/>
<stop offset="1" stop-color="#009EFD"/>
</linearGradient>
<linearGradient id="paint8_linear_23_102" x1="12.9625" y1="53.4594" x2="16.1189" y2="53.4594" gradientUnits="userSpaceOnUse">
<stop stop-color="#2AF598"/>
<stop offset="1" stop-color="#009EFD"/>
</linearGradient>
<linearGradient id="paint9_linear_23_102" x1="4.25" y1="34.5" x2="8.7125" y2="34.5" gradientUnits="userSpaceOnUse">
<stop stop-color="#2AF598"/>
<stop offset="1" stop-color="#009EFD"/>
</linearGradient>
<linearGradient id="paint10_linear_23_102" x1="12.9625" y1="14.5407" x2="16.1189" y2="14.5407" gradientUnits="userSpaceOnUse">
<stop stop-color="#2AF598"/>
<stop offset="1" stop-color="#009EFD"/>
</linearGradient>
<linearGradient id="paint11_linear_23_102" x1="12.9625" y1="14.5407" x2="16.1189" y2="14.5407" gradientUnits="userSpaceOnUse">
<stop stop-color="#2AF598"/>
<stop offset="1" stop-color="#009EFD"/>
</linearGradient>
<linearGradient id="paint12_linear_23_102" x1="17" y1="34" x2="51" y2="34" gradientUnits="userSpaceOnUse">
<stop stop-color="#2AF598"/>
<stop offset="1" stop-color="#009EFD"/>
</linearGradient>
</defs>
</svg>
