<svg width="35" height="35" viewBox="0 0 35 35" fill="none" xmlns="http://www.w3.org/2000/svg">
<circle cx="17.5" cy="17.5" r="17.5" fill="#D34A6A"/>
<path d="M21.875 8.75H13.125C10.7088 8.75 8.75 10.7088 8.75 13.125V21.875C8.75 24.2912 10.7088 26.25 13.125 26.25H21.875C24.2912 26.25 26.25 24.2912 26.25 21.875V13.125C26.25 10.7088 24.2912 8.75 21.875 8.75Z" stroke="white" stroke-width="2" stroke-linecap="round" stroke-linejoin="round"/>
<path d="M21 16.9488C21.108 17.677 20.9836 18.4207 20.6445 19.0742C20.3055 19.7276 19.769 20.2575 19.1114 20.5885C18.4538 20.9195 17.7086 21.0347 16.9818 20.9177C16.255 20.8008 15.5835 20.4576 15.063 19.937C14.5424 19.4165 14.1993 18.745 14.0823 18.0182C13.9654 17.2914 14.0806 16.5462 14.4115 15.8886C14.7425 15.231 15.2724 14.6945 15.9259 14.3555C16.5793 14.0164 17.323 13.892 18.0513 14C18.7941 14.1102 19.4817 14.4563 20.0127 14.9873C20.5437 15.5183 20.8899 16.206 21 16.9488Z" stroke="white" stroke-width="2" stroke-linecap="round" stroke-linejoin="round"/>
<path d="M22.3125 12.6875H22.3225" stroke="white" stroke-width="2" stroke-linecap="round" stroke-linejoin="round"/>
</svg>
