<svg width="23" height="23" viewBox="0 0 23 23" fill="none" xmlns="http://www.w3.org/2000/svg">
<path d="M20.7953 20.9182L16.0585 16.1814L20.7953 20.9182ZM16.0585 16.1814C16.8188 15.4211 17.4219 14.5185 17.8333 13.5251C18.2448 12.5318 18.4566 11.4671 18.4566 10.3919C18.4566 9.31669 18.2448 8.25202 17.8333 7.25866C17.4219 6.2653 16.8188 5.36271 16.0585 4.60242C15.2982 3.84214 14.3956 3.23905 13.4022 2.82759C12.4089 2.41612 11.3442 2.20435 10.269 2.20435C9.1938 2.20435 8.12912 2.41612 7.13576 2.82759C6.1424 3.23905 5.23981 3.84214 4.47953 4.60242C2.94407 6.13789 2.08145 8.22042 2.08145 10.3919C2.08145 12.5634 2.94407 14.6459 4.47953 16.1814C6.01499 17.7168 8.09753 18.5794 10.269 18.5794C12.4405 18.5794 14.523 17.7168 16.0585 16.1814V16.1814Z" stroke="white" stroke-width="3" stroke-linecap="round" stroke-linejoin="round"/>
</svg>
