<svg width="35" height="35" viewBox="0 0 35 35" fill="none" xmlns="http://www.w3.org/2000/svg">
<circle cx="17.5" cy="17.5" r="17.5" fill="#D34A6A"/>
<g clip-path="url(#clip0_256_211)">
<path d="M28.125 10.625C27.2871 11.2161 26.3593 11.6681 25.3775 11.9638C24.8505 11.3578 24.1502 10.9284 23.3712 10.7334C22.5921 10.5385 21.7721 10.5876 21.0218 10.8739C20.2716 11.1603 19.6274 11.6701 19.1764 12.3345C18.7253 12.9989 18.4892 13.7858 18.5 14.5888V15.4638C16.9623 15.5036 15.4386 15.1626 14.0646 14.471C12.6907 13.7795 11.509 12.7588 10.625 11.5C10.625 11.5 7.125 19.375 15 22.875C13.198 24.0982 11.0513 24.7116 8.875 24.625C16.75 29 26.375 24.625 26.375 14.5625C26.3742 14.3188 26.3508 14.0757 26.305 13.8363C27.198 12.9556 27.8282 11.8436 28.125 10.625V10.625Z" stroke="white" stroke-width="2" stroke-linecap="round" stroke-linejoin="round"/>
</g>
<defs>
<clipPath id="clip0_256_211">
<rect width="21" height="21" fill="white" transform="translate(8 8)"/>
</clipPath>
</defs>
</svg>
